<?xml version="1.0" standalone="no"?>
<svg xmlns:xlink="http://www.w3.org/1999/xlink" id="wave" style="transform:rotate(180deg); transition: 0.3s" viewBox="0 0 1440 100" version="1.1" xmlns="http://www.w3.org/2000/svg"><defs><linearGradient id="sw-gradient-0" x1="0" x2="0" y1="1" y2="0"><stop stop-color="rgba(168.909, 45.356, 45.356, 1)" offset="0%"/><stop stop-color="rgba(248.597, 45.702, 45.702, 1)" offset="100%"/></linearGradient></defs><path style="transform:translate(0, 0px); opacity:1" fill="url(#sw-gradient-0)" d="M0,30L60,25C120,20,240,10,360,5C480,0,600,0,720,15C840,30,960,60,1080,65C1200,70,1320,50,1440,35C1560,20,1680,10,1800,5C1920,0,2040,0,2160,6.7C2280,13,2400,27,2520,31.7C2640,37,2760,33,2880,33.3C3000,33,3120,37,3240,40C3360,43,3480,47,3600,53.3C3720,60,3840,70,3960,76.7C4080,83,4200,87,4320,76.7C4440,67,4560,43,4680,41.7C4800,40,4920,60,5040,71.7C5160,83,5280,87,5400,75C5520,63,5640,37,5760,26.7C5880,17,6000,23,6120,25C6240,27,6360,23,6480,25C6600,27,6720,33,6840,33.3C6960,33,7080,27,7200,25C7320,23,7440,27,7560,30C7680,33,7800,37,7920,38.3C8040,40,8160,40,8280,33.3C8400,27,8520,13,8580,6.7L8640,0L8640,100L8580,100C8520,100,8400,100,8280,100C8160,100,8040,100,7920,100C7800,100,7680,100,7560,100C7440,100,7320,100,7200,100C7080,100,6960,100,6840,100C6720,100,6600,100,6480,100C6360,100,6240,100,6120,100C6000,100,5880,100,5760,100C5640,100,5520,100,5400,100C5280,100,5160,100,5040,100C4920,100,4800,100,4680,100C4560,100,4440,100,4320,100C4200,100,4080,100,3960,100C3840,100,3720,100,3600,100C3480,100,3360,100,3240,100C3120,100,3000,100,2880,100C2760,100,2640,100,2520,100C2400,100,2280,100,2160,100C2040,100,1920,100,1800,100C1680,100,1560,100,1440,100C1320,100,1200,100,1080,100C960,100,840,100,720,100C600,100,480,100,360,100C240,100,120,100,60,100L0,100Z"/></svg>