<?xml version="1.0" standalone="no"?>
<svg xmlns:xlink="http://www.w3.org/1999/xlink" id="wave" style="transform:rotate(0deg); transition: 0.3s" viewBox="0 0 1440 200" version="1.1" xmlns="http://www.w3.org/2000/svg"><defs><linearGradient id="sw-gradient-0" x1="0" x2="0" y1="1" y2="0"><stop stop-color="rgba(243, 106, 62, 1)" offset="0%"/><stop stop-color="rgba(255, 179, 11, 1)" offset="100%"/></linearGradient></defs><path style="transform:translate(0, 0px); opacity:1" fill="url(#sw-gradient-0)" d="M0,40L40,36.7C80,33,160,27,240,50C320,73,400,127,480,126.7C560,127,640,73,720,70C800,67,880,113,960,130C1040,147,1120,133,1200,106.7C1280,80,1360,40,1440,23.3C1520,7,1600,13,1680,26.7C1760,40,1840,60,1920,66.7C2000,73,2080,67,2160,63.3C2240,60,2320,60,2400,76.7C2480,93,2560,127,2640,146.7C2720,167,2800,173,2880,153.3C2960,133,3040,87,3120,70C3200,53,3280,67,3360,63.3C3440,60,3520,40,3600,30C3680,20,3760,20,3840,36.7C3920,53,4000,87,4080,93.3C4160,100,4240,80,4320,60C4400,40,4480,20,4560,26.7C4640,33,4720,67,4800,70C4880,73,4960,47,5040,33.3C5120,20,5200,20,5280,16.7C5360,13,5440,7,5520,20C5600,33,5680,67,5720,83.3L5760,100L5760,200L5720,200C5680,200,5600,200,5520,200C5440,200,5360,200,5280,200C5200,200,5120,200,5040,200C4960,200,4880,200,4800,200C4720,200,4640,200,4560,200C4480,200,4400,200,4320,200C4240,200,4160,200,4080,200C4000,200,3920,200,3840,200C3760,200,3680,200,3600,200C3520,200,3440,200,3360,200C3280,200,3200,200,3120,200C3040,200,2960,200,2880,200C2800,200,2720,200,2640,200C2560,200,2480,200,2400,200C2320,200,2240,200,2160,200C2080,200,2000,200,1920,200C1840,200,1760,200,1680,200C1600,200,1520,200,1440,200C1360,200,1280,200,1200,200C1120,200,1040,200,960,200C880,200,800,200,720,200C640,200,560,200,480,200C400,200,320,200,240,200C160,200,80,200,40,200L0,200Z"/></svg>