<?xml version="1.0" standalone="no"?>
<svg xmlns:xlink="http://www.w3.org/1999/xlink" id="wave" style="transform:rotate(180deg); transition: 0.3s" viewBox="0 0 1440 100" version="1.1" xmlns="http://www.w3.org/2000/svg"><defs><linearGradient id="sw-gradient-0" x1="0" x2="0" y1="1" y2="0"><stop stop-color="rgba(243, 106, 62, 1)" offset="0%"/><stop stop-color="rgba(255, 179, 11, 1)" offset="100%"/></linearGradient></defs><path style="transform:translate(0, 0px); opacity:1" fill="url(#sw-gradient-0)" d="M0,70L21.8,63.3C43.6,57,87,43,131,46.7C174.5,50,218,70,262,71.7C305.5,73,349,57,393,56.7C436.4,57,480,73,524,78.3C567.3,83,611,77,655,61.7C698.2,47,742,23,785,26.7C829.1,30,873,60,916,61.7C960,63,1004,37,1047,31.7C1090.9,27,1135,43,1178,48.3C1221.8,53,1265,47,1309,50C1352.7,53,1396,67,1440,75C1483.6,83,1527,87,1571,83.3C1614.5,80,1658,70,1702,55C1745.5,40,1789,20,1833,15C1876.4,10,1920,20,1964,35C2007.3,50,2051,70,2095,80C2138.2,90,2182,90,2225,81.7C2269.1,73,2313,57,2356,56.7C2400,57,2444,73,2487,70C2530.9,67,2575,43,2618,31.7C2661.8,20,2705,20,2749,20C2792.7,20,2836,20,2880,26.7C2923.6,33,2967,47,3011,48.3C3054.5,50,3098,40,3120,35L3141.8,30L3141.8,100L3120,100C3098.2,100,3055,100,3011,100C2967.3,100,2924,100,2880,100C2836.4,100,2793,100,2749,100C2705.5,100,2662,100,2618,100C2574.5,100,2531,100,2487,100C2443.6,100,2400,100,2356,100C2312.7,100,2269,100,2225,100C2181.8,100,2138,100,2095,100C2050.9,100,2007,100,1964,100C1920,100,1876,100,1833,100C1789.1,100,1745,100,1702,100C1658.2,100,1615,100,1571,100C1527.3,100,1484,100,1440,100C1396.4,100,1353,100,1309,100C1265.5,100,1222,100,1178,100C1134.5,100,1091,100,1047,100C1003.6,100,960,100,916,100C872.7,100,829,100,785,100C741.8,100,698,100,655,100C610.9,100,567,100,524,100C480,100,436,100,393,100C349.1,100,305,100,262,100C218.2,100,175,100,131,100C87.3,100,44,100,22,100L0,100Z"/></svg>