<?xml version="1.0" standalone="no"?>
<svg xmlns:xlink="http://www.w3.org/1999/xlink" id="wave" style="transform:rotate(0deg); transition: 0.3s" viewBox="0 0 1440 490" version="1.1" xmlns="http://www.w3.org/2000/svg"><defs><linearGradient id="sw-gradient-0" x1="0" x2="0" y1="1" y2="0"><stop stop-color="rgba(255, 204.513, 88.629, 1)" offset="0%"/><stop stop-color="rgba(255, 168.98, 0, 1)" offset="100%"/></linearGradient></defs><path style="transform:translate(0, 0px); opacity:1" fill="url(#sw-gradient-0)" d="M0,343L60,359.3C120,376,240,408,360,392C480,376,600,310,720,277.7C840,245,960,245,1080,253.2C1200,261,1320,278,1440,310.3C1560,343,1680,392,1800,343C1920,294,2040,147,2160,98C2280,49,2400,98,2520,147C2640,196,2760,245,2880,228.7C3000,212,3120,131,3240,138.8C3360,147,3480,245,3600,294C3720,343,3840,343,3960,343C4080,343,4200,343,4320,343C4440,343,4560,343,4680,285.8C4800,229,4920,114,5040,106.2C5160,98,5280,196,5400,212.3C5520,229,5640,163,5760,114.3C5880,65,6000,33,6120,57.2C6240,82,6360,163,6480,204.2C6600,245,6720,245,6840,245C6960,245,7080,245,7200,277.7C7320,310,7440,376,7560,375.7C7680,376,7800,310,7920,245C8040,180,8160,114,8280,130.7C8400,147,8520,245,8580,294L8640,343L8640,490L8580,490C8520,490,8400,490,8280,490C8160,490,8040,490,7920,490C7800,490,7680,490,7560,490C7440,490,7320,490,7200,490C7080,490,6960,490,6840,490C6720,490,6600,490,6480,490C6360,490,6240,490,6120,490C6000,490,5880,490,5760,490C5640,490,5520,490,5400,490C5280,490,5160,490,5040,490C4920,490,4800,490,4680,490C4560,490,4440,490,4320,490C4200,490,4080,490,3960,490C3840,490,3720,490,3600,490C3480,490,3360,490,3240,490C3120,490,3000,490,2880,490C2760,490,2640,490,2520,490C2400,490,2280,490,2160,490C2040,490,1920,490,1800,490C1680,490,1560,490,1440,490C1320,490,1200,490,1080,490C960,490,840,490,720,490C600,490,480,490,360,490C240,490,120,490,60,490L0,490Z"/></svg>