<?xml version="1.0" standalone="no"?>
<svg xmlns:xlink="http://www.w3.org/1999/xlink" id="wave" style="transform:rotate(180deg); transition: 0.3s" viewBox="0 0 1440 180" version="1.1" xmlns="http://www.w3.org/2000/svg"><defs><linearGradient id="sw-gradient-0" x1="0" x2="0" y1="1" y2="0"><stop stop-color="rgba(243, 106, 62, 1)" offset="0%"/><stop stop-color="rgba(255, 179, 11, 1)" offset="100%"/></linearGradient></defs><path style="transform:translate(0, 0px); opacity:1" fill="url(#sw-gradient-0)" d="M0,126L18.5,126C36.9,126,74,126,111,108C147.7,90,185,54,222,48C258.5,42,295,66,332,66C369.2,66,406,42,443,39C480,36,517,54,554,69C590.8,84,628,96,665,111C701.5,126,738,144,775,141C812.3,138,849,114,886,102C923.1,90,960,90,997,102C1033.8,114,1071,138,1108,144C1144.6,150,1182,138,1218,138C1255.4,138,1292,150,1329,147C1366.2,144,1403,126,1440,99C1476.9,72,1514,36,1551,42C1587.7,48,1625,96,1662,96C1698.5,96,1735,48,1772,48C1809.2,48,1846,96,1883,114C1920,132,1957,120,1994,108C2030.8,96,2068,84,2105,72C2141.5,60,2178,48,2215,63C2252.3,78,2289,120,2326,114C2363.1,108,2400,54,2437,45C2473.8,36,2511,72,2548,75C2584.6,78,2622,48,2640,33L2658.5,18L2658.5,180L2640,180C2621.5,180,2585,180,2548,180C2510.8,180,2474,180,2437,180C2400,180,2363,180,2326,180C2289.2,180,2252,180,2215,180C2178.5,180,2142,180,2105,180C2067.7,180,2031,180,1994,180C1956.9,180,1920,180,1883,180C1846.2,180,1809,180,1772,180C1735.4,180,1698,180,1662,180C1624.6,180,1588,180,1551,180C1513.8,180,1477,180,1440,180C1403.1,180,1366,180,1329,180C1292.3,180,1255,180,1218,180C1181.5,180,1145,180,1108,180C1070.8,180,1034,180,997,180C960,180,923,180,886,180C849.2,180,812,180,775,180C738.5,180,702,180,665,180C627.7,180,591,180,554,180C516.9,180,480,180,443,180C406.2,180,369,180,332,180C295.4,180,258,180,222,180C184.6,180,148,180,111,180C73.8,180,37,180,18,180L0,180Z"/></svg>